<mxfile host="app.diagrams.net" modified="2022-09-30T07:08:54.999Z" agent="5.0 (Windows NT 10.0; Win64; x64) AppleWebKit/537.36 (KHTML, like Gecko) Chrome/105.0.0.0 Safari/537.36" etag="vQFg61q-yH9Nl-UTDeqR" version="20.3.7" type="github">
  <diagram id="Vdv9MWAwqf2mfedwVUf3" name="페이지-1">
    <mxGraphModel dx="734" dy="1121" grid="1" gridSize="10" guides="1" tooltips="1" connect="1" arrows="1" fold="1" page="1" pageScale="1" pageWidth="827" pageHeight="1169" math="0" shadow="0">
      <root>
        <mxCell id="0" />
        <mxCell id="1" parent="0" />
        <mxCell id="VD2REtbUF1-V1g2N4mwt-2" value="게시판 서비스" style="shape=umlFrame;whiteSpace=wrap;html=1;width=90;height=30;" vertex="1" parent="1">
          <mxGeometry x="120" y="110" width="690" height="710" as="geometry" />
        </mxCell>
        <mxCell id="VD2REtbUF1-V1g2N4mwt-24" style="rounded=0;orthogonalLoop=1;jettySize=auto;html=1;exitX=1;exitY=0.3333333333333333;exitDx=0;exitDy=0;exitPerimeter=0;entryX=0;entryY=0.5;entryDx=0;entryDy=0;endArrow=none;endFill=0;" edge="1" parent="1" source="VD2REtbUF1-V1g2N4mwt-1" target="VD2REtbUF1-V1g2N4mwt-8">
          <mxGeometry relative="1" as="geometry" />
        </mxCell>
        <mxCell id="VD2REtbUF1-V1g2N4mwt-1" value="이용자" style="shape=umlActor;verticalLabelPosition=bottom;verticalAlign=top;html=1;" vertex="1" parent="1">
          <mxGeometry x="40" y="360" width="50" height="80" as="geometry" />
        </mxCell>
        <mxCell id="VD2REtbUF1-V1g2N4mwt-20" style="rounded=0;orthogonalLoop=1;jettySize=auto;html=1;exitX=0;exitY=0.5;exitDx=0;exitDy=0;entryX=1;entryY=0.3333333333333333;entryDx=0;entryDy=0;entryPerimeter=0;endArrow=none;endFill=0;" edge="1" parent="1" source="VD2REtbUF1-V1g2N4mwt-5" target="VD2REtbUF1-V1g2N4mwt-1">
          <mxGeometry relative="1" as="geometry" />
        </mxCell>
        <mxCell id="VD2REtbUF1-V1g2N4mwt-5" value="회원가입" style="rounded=1;whiteSpace=wrap;html=1;arcSize=40;fontColor=#000000;fillColor=#ffffc0;strokeColor=#ff0000;" vertex="1" parent="1">
          <mxGeometry x="190" y="200" width="120" height="40" as="geometry" />
        </mxCell>
        <mxCell id="VD2REtbUF1-V1g2N4mwt-27" style="edgeStyle=none;rounded=0;orthogonalLoop=1;jettySize=auto;html=1;exitX=0;exitY=0.5;exitDx=0;exitDy=0;entryX=1;entryY=0.3333333333333333;entryDx=0;entryDy=0;entryPerimeter=0;endArrow=none;endFill=0;" edge="1" parent="1" source="VD2REtbUF1-V1g2N4mwt-7" target="VD2REtbUF1-V1g2N4mwt-1">
          <mxGeometry relative="1" as="geometry" />
        </mxCell>
        <mxCell id="VD2REtbUF1-V1g2N4mwt-7" value="게시판 보기" style="rounded=1;whiteSpace=wrap;html=1;arcSize=40;fontColor=#000000;fillColor=#ffffc0;strokeColor=#ff0000;" vertex="1" parent="1">
          <mxGeometry x="190" y="380" width="120" height="40" as="geometry" />
        </mxCell>
        <mxCell id="VD2REtbUF1-V1g2N4mwt-8" value="게시글 보기" style="rounded=1;whiteSpace=wrap;html=1;arcSize=40;fontColor=#000000;fillColor=#ffffc0;strokeColor=#ff0000;" vertex="1" parent="1">
          <mxGeometry x="190" y="565" width="120" height="40" as="geometry" />
        </mxCell>
        <mxCell id="VD2REtbUF1-V1g2N4mwt-22" style="rounded=0;orthogonalLoop=1;jettySize=auto;html=1;exitX=0;exitY=0.5;exitDx=0;exitDy=0;entryX=1;entryY=0.3333333333333333;entryDx=0;entryDy=0;entryPerimeter=0;endArrow=none;endFill=0;" edge="1" parent="1" source="VD2REtbUF1-V1g2N4mwt-9" target="VD2REtbUF1-V1g2N4mwt-1">
          <mxGeometry relative="1" as="geometry" />
        </mxCell>
        <mxCell id="VD2REtbUF1-V1g2N4mwt-29" value="&amp;lt;&amp;lt;include&amp;gt;&amp;gt;" style="edgeStyle=none;rounded=0;orthogonalLoop=1;jettySize=auto;html=1;exitX=1;exitY=0.5;exitDx=0;exitDy=0;entryX=0;entryY=0.5;entryDx=0;entryDy=0;endArrow=classic;endFill=1;dashed=1;" edge="1" parent="1" source="VD2REtbUF1-V1g2N4mwt-9" target="VD2REtbUF1-V1g2N4mwt-10">
          <mxGeometry relative="1" as="geometry" />
        </mxCell>
        <mxCell id="VD2REtbUF1-V1g2N4mwt-9" value="회원 로그인" style="rounded=1;whiteSpace=wrap;html=1;arcSize=40;fontColor=#000000;fillColor=#ffffc0;strokeColor=#ff0000;" vertex="1" parent="1">
          <mxGeometry x="400" y="140" width="120" height="40" as="geometry" />
        </mxCell>
        <mxCell id="VD2REtbUF1-V1g2N4mwt-10" value="인증" style="rounded=1;whiteSpace=wrap;html=1;arcSize=40;fontColor=#000000;fillColor=#ffffc0;strokeColor=#ff0000;" vertex="1" parent="1">
          <mxGeometry x="630" y="140" width="120" height="40" as="geometry" />
        </mxCell>
        <mxCell id="VD2REtbUF1-V1g2N4mwt-31" value="&amp;lt;&amp;lt;extend&amp;gt;&amp;gt;" style="edgeStyle=none;rounded=0;orthogonalLoop=1;jettySize=auto;html=1;exitX=0;exitY=0.5;exitDx=0;exitDy=0;entryX=1;entryY=0.5;entryDx=0;entryDy=0;endArrow=classic;endFill=1;dashed=1;" edge="1" parent="1" source="VD2REtbUF1-V1g2N4mwt-11" target="VD2REtbUF1-V1g2N4mwt-9">
          <mxGeometry relative="1" as="geometry" />
        </mxCell>
        <mxCell id="VD2REtbUF1-V1g2N4mwt-11" value="로그인 실패" style="rounded=1;whiteSpace=wrap;html=1;arcSize=40;fontColor=#000000;fillColor=#ffffc0;strokeColor=#ff0000;" vertex="1" parent="1">
          <mxGeometry x="630" y="220" width="120" height="40" as="geometry" />
        </mxCell>
        <mxCell id="VD2REtbUF1-V1g2N4mwt-12" value="게시판 정렬하기" style="rounded=1;whiteSpace=wrap;html=1;arcSize=40;fontColor=#000000;fillColor=#ffffc0;strokeColor=#ff0000;" vertex="1" parent="1">
          <mxGeometry x="400" y="380" width="120" height="40" as="geometry" />
        </mxCell>
        <mxCell id="VD2REtbUF1-V1g2N4mwt-13" value="게시판 검색" style="rounded=1;whiteSpace=wrap;html=1;arcSize=40;fontColor=#000000;fillColor=#ffffc0;strokeColor=#ff0000;" vertex="1" parent="1">
          <mxGeometry x="400" y="440" width="120" height="40" as="geometry" />
        </mxCell>
        <mxCell id="VD2REtbUF1-V1g2N4mwt-14" value="게시판 쓰기, 수정, 삭제" style="rounded=1;whiteSpace=wrap;html=1;arcSize=40;fontColor=#000000;fillColor=#ffffc0;strokeColor=#ff0000;" vertex="1" parent="1">
          <mxGeometry x="395" y="660" width="130" height="40" as="geometry" />
        </mxCell>
        <mxCell id="VD2REtbUF1-V1g2N4mwt-15" value="댓글 보기, 쓰기, 수정, 삭제" style="rounded=1;whiteSpace=wrap;html=1;arcSize=40;fontColor=#000000;fillColor=#ffffc0;strokeColor=#ff0000;" vertex="1" parent="1">
          <mxGeometry x="395" y="720" width="130" height="40" as="geometry" />
        </mxCell>
        <mxCell id="VD2REtbUF1-V1g2N4mwt-36" value="" style="endArrow=classic;html=1;rounded=0;exitX=1;exitY=0.5;exitDx=0;exitDy=0;entryX=0.5;entryY=1;entryDx=0;entryDy=0;endFill=1;dashed=1;" edge="1" parent="1" source="VD2REtbUF1-V1g2N4mwt-8" target="VD2REtbUF1-V1g2N4mwt-9">
          <mxGeometry width="50" height="50" relative="1" as="geometry">
            <mxPoint x="380" y="630" as="sourcePoint" />
            <mxPoint x="430" y="580" as="targetPoint" />
          </mxGeometry>
        </mxCell>
        <mxCell id="VD2REtbUF1-V1g2N4mwt-37" value="" style="endArrow=classic;html=1;rounded=0;dashed=1;exitX=1;exitY=0.5;exitDx=0;exitDy=0;entryX=0.5;entryY=1;entryDx=0;entryDy=0;endFill=1;" edge="1" parent="1" source="VD2REtbUF1-V1g2N4mwt-7" target="VD2REtbUF1-V1g2N4mwt-9">
          <mxGeometry width="50" height="50" relative="1" as="geometry">
            <mxPoint x="380" y="630" as="sourcePoint" />
            <mxPoint x="430" y="580" as="targetPoint" />
          </mxGeometry>
        </mxCell>
        <mxCell id="VD2REtbUF1-V1g2N4mwt-38" value="" style="endArrow=classic;html=1;rounded=0;dashed=1;exitX=0;exitY=0.5;exitDx=0;exitDy=0;endFill=1;entryX=1;entryY=0.5;entryDx=0;entryDy=0;" edge="1" parent="1" source="VD2REtbUF1-V1g2N4mwt-12" target="VD2REtbUF1-V1g2N4mwt-7">
          <mxGeometry width="50" height="50" relative="1" as="geometry">
            <mxPoint x="380" y="630" as="sourcePoint" />
            <mxPoint x="430" y="580" as="targetPoint" />
          </mxGeometry>
        </mxCell>
        <mxCell id="VD2REtbUF1-V1g2N4mwt-39" value="" style="endArrow=classic;html=1;rounded=0;dashed=1;entryX=1;entryY=0.5;entryDx=0;entryDy=0;exitX=0;exitY=0.5;exitDx=0;exitDy=0;endFill=1;" edge="1" parent="1" source="VD2REtbUF1-V1g2N4mwt-13" target="VD2REtbUF1-V1g2N4mwt-7">
          <mxGeometry width="50" height="50" relative="1" as="geometry">
            <mxPoint x="320" y="410" as="sourcePoint" />
            <mxPoint x="410" y="410" as="targetPoint" />
          </mxGeometry>
        </mxCell>
        <mxCell id="VD2REtbUF1-V1g2N4mwt-40" value="" style="endArrow=classic;html=1;rounded=0;dashed=1;exitX=0;exitY=0.5;exitDx=0;exitDy=0;endFill=1;entryX=1;entryY=0.5;entryDx=0;entryDy=0;" edge="1" parent="1" source="VD2REtbUF1-V1g2N4mwt-14" target="VD2REtbUF1-V1g2N4mwt-8">
          <mxGeometry width="50" height="50" relative="1" as="geometry">
            <mxPoint x="395" y="500" as="sourcePoint" />
            <mxPoint x="305" y="500" as="targetPoint" />
          </mxGeometry>
        </mxCell>
        <mxCell id="VD2REtbUF1-V1g2N4mwt-41" value="" style="endArrow=classic;html=1;rounded=0;dashed=1;exitX=0;exitY=0.5;exitDx=0;exitDy=0;endFill=1;entryX=1;entryY=0.5;entryDx=0;entryDy=0;" edge="1" parent="1" source="VD2REtbUF1-V1g2N4mwt-15" target="VD2REtbUF1-V1g2N4mwt-8">
          <mxGeometry width="50" height="50" relative="1" as="geometry">
            <mxPoint x="405" y="690" as="sourcePoint" />
            <mxPoint x="320" y="595" as="targetPoint" />
          </mxGeometry>
        </mxCell>
      </root>
    </mxGraphModel>
  </diagram>
</mxfile>
